<svg width="91" height="84" viewBox="0 0 91 84" fill="none" xmlns="http://www.w3.org/2000/svg">
<path d="M87.6339 25.4C77.2539 9.69 62.1339 1.18 42.6739 0.0999999C41.7739 0.0299999 40.8839 0 40.0039 0C31.5339 0 24.0939 3.12 17.8539 9.31C10.3939 16.71 4.97394 25.73 1.75394 36.11C-3.05606 51.63 2.19394 66.79 15.4539 75.68C16.1139 76.12 16.7439 76.63 17.3539 77.13C18.5439 78.1 19.6639 79.01 20.9539 79.43C24.8939 80.7 28.9339 81.48 33.4339 82.3C42.4439 83.94 52.8839 85.3 62.7939 80.7C78.4839 73.42 87.6939 60.32 90.1639 41.76C90.8539 36.6 91.0839 30.62 87.6339 25.39V25.4Z" fill="white"/>
<path d="M22.385 48.9048C22.3931 48.901 22.4007 48.8965 22.4079 48.8912C23.2466 48.2772 24.175 47.798 25.1547 47.2874C25.4607 47.1282 25.7729 46.9663 26.0891 46.7972C26.2956 46.6867 26.3455 46.4198 26.1976 46.2395C25.9168 45.9084 25.6017 45.5336 25.3442 45.1244C25.0075 44.5881 24.6439 44.0569 24.2947 43.5414C23.3748 42.1813 22.4179 40.7714 21.777 39.2508C21.1967 37.881 21.3665 36.3242 22.2433 34.9885C23.2486 33.4509 25.0081 32.5153 26.8284 32.5436C28.1995 32.5657 29.5529 32.8573 30.983 33.1728C31.1696 33.2135 31.357 33.2546 31.5457 33.2953C32.0908 33.4131 32.5144 32.8593 32.2684 32.3546C31.7914 31.3766 31.2917 30.3645 30.9895 29.3196C30.8824 28.9519 30.7638 28.5747 30.6424 28.1913C30.1031 26.4739 29.3959 23.698 29.6391 22.0769C30.1016 19.0251 31.0678 18.3296 32.3431 17.7326C33.5337 17.1752 35.181 17.583 37.3883 18.9746C38.7472 19.8307 39.5375 20.7068 40.8356 21.9644C41.06 22.1817 41.2614 22.427 41.4497 22.6718C41.915 23.2768 42.7029 23.1368 42.9956 22.4231C43.3447 21.5733 43.7035 20.6964 44.2721 19.9602C45.9582 17.8054 47.7906 16.6417 49.5715 16.5988C51.129 16.5636 52.6324 17.367 54.0465 18.9957C56.9746 22.3778 58.7544 26.5736 59.6483 32.1988C59.7971 33.1141 59.8854 34.0576 59.9746 34.9709C60.0111 35.312 60.4559 35.4229 60.6659 35.151C62.2029 33.1604 64.1889 31.9279 66.1184 30.7218L66.495 30.4858C67.8893 29.6167 69.768 29.9534 71.039 31.3133C73.1842 33.6069 73.5436 38.0125 71.809 40.7421C69.3188 44.6537 66.683 48.3723 63.74 52.481C63.0106 53.4939 63.0405 54.1291 63.8427 55.0817C64.8688 56.2876 65.7743 57.632 66.6603 58.9333C66.8081 59.1477 66.9498 59.3649 67.0976 59.5792C67.413 60.0359 67.5138 60.5036 67.3775 60.8509C67.2996 61.0516 67.1096 61.3121 66.6179 61.4229C66.0872 61.5445 65.2009 61.3476 64.8074 60.9125C63.9833 59.9926 63.1969 59.0102 62.4421 58.0653C61.8017 57.2608 61.1354 56.4312 60.4527 55.6465C59.6268 54.6901 59.6168 54.0829 60.4094 53.0478C63.3068 49.244 66.0594 45.4111 68.5898 41.6374C69.7721 39.8752 70.9922 37.4983 69.926 34.692C69.5508 33.6962 69.1718 33.1797 68.6984 33.0059C68.263 32.8516 67.7202 32.9789 66.9799 33.415C65.4597 34.3132 64.1161 35.457 63.0987 36.7242C62.3821 37.6193 61.8213 38.6653 61.2764 39.6815C60.9277 40.3372 60.5575 41.0103 60.1559 41.646C59.8987 42.05 59.1763 42.3957 58.7686 42.303C58.3196 42.1998 57.7592 41.5891 57.6965 41.141C57.5279 39.9216 57.4555 38.6722 57.391 37.4563C57.3726 37.1068 57.3542 36.7572 57.327 36.4043C56.9527 30.3568 55.6498 26.0497 53.1104 22.4259C51.8421 20.6171 49.8883 19.4798 48.6562 19.8477C46.7391 20.4169 45.2133 22.7652 45.4034 24.8774C45.5161 26.1677 45.7208 27.4671 45.9176 28.733C46.0846 29.8188 46.2594 30.9382 46.3753 32.0405C46.5139 33.3559 46.8168 35.766 46.728 37.4863C46.7068 37.8619 46.4841 39.2047 46.0677 39.2877C45.7592 39.3501 44.9045 38.3773 44.776 38.0271C44.2941 36.7455 43.4373 33.983 43.0318 32.5462C41.8258 28.2758 40.1085 23.9911 35.7391 21.5523C35.4547 21.3951 34.6972 20.9949 34.0528 20.8803C33.5669 20.7938 32.9883 20.8795 32.6509 21.248C32.5532 21.3547 32.4783 21.4863 32.4244 21.6391C32.2526 22.1261 32.2584 22.6734 32.2863 23.1879C32.2946 23.3393 32.3168 23.5361 32.3642 23.8207C32.4015 24.0444 32.4657 24.2629 32.5498 24.4728C32.8574 25.2407 33.1736 25.9809 33.4628 26.7516C34.32 29.0289 35.2105 31.3802 36.2751 33.5978C37.0694 35.2479 38.0836 36.8176 39.0696 38.3407C39.5512 39.0852 40.05 39.8515 40.513 40.6197C41.1316 41.6358 40.916 42.6844 39.9629 43.3469C39.6522 43.567 39.3492 43.6417 39.0744 43.5838C38.578 43.473 38.2348 42.9547 37.9214 42.4373C35.7634 38.7991 32.4614 36.5695 27.8053 35.6229C26.6111 35.3761 25.423 35.3056 24.8389 36.4296C24.2486 37.5566 24.3697 38.8653 25.1774 40.1063C27.7167 44.0062 31.2551 46.9236 34.7065 49.5011C35.796 50.3117 35.3816 51.0653 35.0148 51.7295L34.9481 51.8577C34.7616 52.1912 34.476 52.6458 34.0267 52.7368C33.6912 52.8043 33.3268 52.6615 32.8951 52.304C31.4584 51.0963 29.6082 50.4329 27.0716 50.1953C25.4281 50.0395 23.0516 51.2788 22.6852 52.4801C22.1953 54.0898 23.197 55.128 24.3468 56.0074C30.073 60.3702 36.7134 61.6116 44.0728 59.6884C45.0423 59.436 45.7575 59.4967 46.2988 60.6012C46.7707 61.5517 47.4356 62.4268 48.0245 63.1659C48.4249 63.6649 48.8522 64.1587 49.2624 64.6308C49.9738 65.4468 50.714 66.2941 51.3179 67.2127C51.6296 67.6935 51.4012 69.039 50.9402 69.3966C50.9035 69.4287 50.8551 69.4514 50.8007 69.4768C50.2628 69.7286 49.1483 69.5938 48.7654 69.1985C47.7752 68.1698 46.8595 67.0465 45.9726 65.9545C45.449 65.3117 44.9054 64.641 44.3548 64.0034C44.0309 63.6253 43.4983 63.2553 43.2047 63.3182C40.0867 63.9347 36.9367 63.6186 33.8874 63.3151L33.736 63.3039C29.0552 62.8389 24.9978 60.9629 21.6745 57.7434C20.0012 56.1242 19.2345 54.6327 19.3348 53.1979C19.4359 51.7356 20.4272 50.3397 22.3621 48.9184C22.3692 48.9132 22.377 48.9086 22.385 48.9048Z" fill="black"/>
<path d="M51.8144 48.3491C51.7616 46.8666 51.875 46.6223 52.1358 45.284C52.4009 43.9063 52.9514 43.2805 53.816 42.2266C53.9245 42.0938 54.1025 42.0179 54.3715 41.9815C54.8078 41.9265 55.2344 42.0774 55.5603 42.3949C55.8802 42.7152 56.0387 43.1484 55.9974 43.593C55.9714 43.844 55.9032 44.0177 55.7892 44.1382C53.7766 46.2667 53.957 47.8017 54.3855 49.9911C54.5997 50.9763 55.0282 51.7425 54.7068 52.5088C54.5581 52.7799 54.4482 53.0556 54.1581 53.1914C54.0613 53.2367 53.9531 53.2725 53.842 53.3021C53.5357 53.3858 53.1895 53.2345 52.7543 52.9831C51.992 52.5416 51.8475 51.7092 51.8144 50.8069C51.8093 50.6004 51.8257 49.6474 51.8144 49.4437L51.8144 48.3491Z" fill="black"/>
<path d="M20.0563 58.7327C20.1931 58.9298 20.2517 59.181 20.3058 59.4238C20.3354 59.5601 20.3695 59.7049 20.4157 59.8321C20.9228 61.2097 21.6616 61.9359 22.7909 62.1792C22.914 62.2095 23.0535 62.2305 23.1848 62.2562C23.6927 62.3465 24.2216 62.4361 24.5161 62.7588C24.8629 63.1399 25.6774 64.1296 25.6617 65.0162C25.6608 65.1857 25.6383 65.3345 25.6004 65.4645C25.5473 65.6465 25.4591 65.7824 25.3357 65.8724C24.9618 66.1552 24.3562 65.9716 23.8226 65.8027L23.7207 65.7718C23.472 65.6964 23.2177 65.6406 22.9634 65.5847C22.8468 65.5564 22.7283 65.5346 22.618 65.5083C19.7649 64.9899 18.0843 63.0444 17.4879 59.5458C17.4207 59.1576 17.6198 58.7369 17.8031 58.4175C17.9902 58.0851 18.326 57.8615 18.7037 57.8275C19.075 57.7915 19.427 57.9406 19.6614 58.231C19.8103 58.4106 19.9355 58.5759 20.0417 58.7354L20.0563 58.7327Z" fill="black"/>
<path d="M61.9833 13.2785C67.3351 13.7696 70.5106 16.163 72.2734 21.0447C72.5139 21.7153 72.8127 22.5468 72.5384 23.1392C72.4138 23.4078 72.1868 23.5984 71.8578 23.7176C71.4169 23.8744 70.7827 23.3794 70.169 22.9041C69.937 22.7216 69.8347 22.562 69.6308 22.4261C69.4814 22.3292 69.3866 22.0372 69.3012 21.8529C69.2867 21.8127 69.2809 21.8062 69.2663 21.7659C68.0115 18.0211 65.7591 16.5684 61.6376 16.6954C60.8134 16.7222 60.2152 16.5313 59.8633 16.1289C59.6425 15.8783 59.526 15.5564 59.514 15.1701C59.5099 15.0414 59.5188 14.8986 59.5343 14.7556C59.5663 14.5036 59.718 14.2476 59.9889 13.9742C60.492 13.4627 61.2228 13.215 61.9769 13.2855L61.9833 13.2785Z" fill="black"/>
<path d="M66.0754 24.9692C65.9128 24.7936 65.8203 24.5532 65.7334 24.3206C65.6853 24.1898 65.6317 24.0514 65.5685 23.932C64.877 22.6405 64.0457 22.0269 62.8941 21.9473C62.7681 21.935 62.627 21.934 62.4935 21.9274C61.9782 21.9105 61.4422 21.8974 61.1063 21.6199C60.7106 21.2922 59.768 20.4286 59.6618 19.5485C59.6393 19.3805 59.6412 19.23 59.6609 19.0958C59.6884 18.9081 59.7571 18.7608 59.8669 18.6542C60.1982 18.3207 60.8231 18.416 61.3746 18.507L61.4798 18.523C61.7364 18.5621 61.9958 18.5811 62.2553 18.6001C62.3747 18.6115 62.495 18.6161 62.6078 18.6264C65.504 18.7321 67.4354 20.4184 68.5067 23.7972C68.6265 24.172 68.4873 24.617 68.3497 24.9594C68.2101 25.3152 67.9083 25.5846 67.539 25.6723C67.1764 25.761 66.8073 25.6636 66.5353 25.4095C66.3632 25.253 66.2165 25.1073 66.0895 24.9645L66.0754 24.9692Z" fill="black"/>
<path d="M20.8142 70.0347C15.8419 67.9575 13.4992 64.7163 13.2255 59.5218C13.1895 58.8087 13.1443 57.9243 13.5775 57.4407C13.7743 57.2214 14.0463 57.1075 14.3951 57.0924C14.8617 57.075 15.3248 57.7386 15.7739 58.3772C15.9428 58.6212 16.1024 58.8486 16.2579 59.0396C16.3727 59.1771 16.3725 59.4091 16.3746 59.6065C16.3769 59.6493 16.3728 59.6904 16.3751 59.7332C16.4919 63.6888 18.1569 65.7565 22.1321 66.8733C22.9274 67.0954 23.4439 67.4575 23.6639 67.9478C23.8024 68.2536 23.8207 68.5962 23.7206 68.969C23.6872 69.0932 23.6375 69.227 23.5814 69.3589C23.4779 69.5902 23.259 69.7892 22.9211 69.969C22.2925 70.3068 21.5226 70.3238 20.8223 70.0299L20.8142 70.0347Z" fill="black"/>
</svg>
