<svg width="91" height="84" viewBox="0 0 91 84" fill="none" xmlns="http://www.w3.org/2000/svg">
<path d="M87.6339 25.4C77.2539 9.69 62.1339 1.18 42.6739 0.0999999C41.7739 0.0299999 40.8839 0 40.0039 0C31.5339 0 24.0939 3.12 17.8539 9.31C10.3939 16.71 4.97394 25.73 1.75394 36.11C-3.05606 51.63 2.19394 66.79 15.4539 75.68C16.1139 76.12 16.7439 76.63 17.3539 77.13C18.5439 78.1 19.6639 79.01 20.9539 79.43C24.8939 80.7 28.9339 81.48 33.4339 82.3C42.4439 83.94 52.8839 85.3 62.7939 80.7C78.4839 73.42 87.6939 60.32 90.1639 41.76C90.8539 36.6 91.0839 30.62 87.6339 25.39V25.4Z" fill="white"/>
<path d="M57.8868 49.4415C53.2366 49.1663 48.5935 48.623 43.9504 48.6089C39.1026 48.5947 33.6974 47.4022 30.649 53.0191C30.5926 53.125 30.4374 53.1814 30.388 53.2873C29.8023 54.5786 28.9767 55.8276 28.7226 57.1824C28.4404 58.6784 30.1198 60.1108 32.3708 60.6824C37.4444 61.9808 42.6167 62.3195 47.8314 62.1431C49.525 62.1431 51.2255 62.1783 52.9191 62.1219C53.4624 62.1078 54.1822 62.0443 54.4997 61.7056C56.8283 59.2358 59.3404 56.879 60.4765 53.5342C61.2598 51.2197 60.1872 49.5685 57.8939 49.4345L57.8868 49.4415ZM42.2568 57.9233L41.4171 59.0876C38.2841 58.7066 35.645 58.4526 33.0482 58.0009C32.8365 57.9657 32.639 57.7822 32.4625 57.5493C32.0251 56.9848 32.1521 56.1663 32.7448 55.7923C32.9706 55.6512 33.1894 55.5524 33.4081 55.5594C35.9766 55.6582 38.5522 55.884 41.1067 56.1874C41.4242 56.2227 41.7206 56.3991 42.024 56.5967C42.4544 56.8931 42.5673 57.4929 42.2568 57.9233ZM43.7316 53.7883C43.5976 53.9153 43.4706 53.9929 43.3365 53.9929C42.0946 54.007 40.8597 53.7459 39.145 53.5342C38.5734 53.506 36.7035 53.379 35.6662 53.2096C35.645 53.2096 35.6238 53.2026 35.6027 53.1955C34.89 53.0262 35.1934 51.2974 35.8355 50.8316C35.9837 50.7258 36.1319 50.6552 36.273 50.6623C38.5734 50.7117 41.6641 51.1068 43.9574 51.3891C44.0068 51.3891 44.0562 51.4103 44.1056 51.4385C44.6843 51.756 44.2609 53.3014 43.7387 53.7883H43.7316ZM45.3828 58.9536C45.6298 57.133 46.4766 56.3074 48.5935 56.6249C50.6258 56.9284 52.7356 56.7943 54.9584 56.8649C54.528 60.2378 46.9494 59.7015 45.3828 58.9536ZM46.7588 53.5554C47.3798 52.0453 53.8153 51.6431 57.1671 52.9838C55.8687 55.1149 51.2044 55.3124 46.7588 53.5554Z" fill="black"/>
<path d="M76.2406 19.9316C76.0148 17.9982 76.0289 15.4155 73.4181 14.9004C69.3254 14.0889 65.1832 13.5456 61.0341 13.0446C59.6863 12.8823 58.2821 13.2069 56.899 13.3198C49.9343 13.8561 42.9626 14.3006 36.0191 15.0133C34.8618 15.1333 33.38 16.1635 32.8155 17.1938C30.7691 20.9125 30.4445 25.1252 30.4445 29.2602C30.4445 33.3459 31.0302 37.4315 31.2137 41.5243C31.2489 42.2864 30.7903 43.2743 30.2399 43.8317C27.9536 46.118 25.6038 48.3549 23.1552 50.4647C19.9234 53.252 16.9526 56.1804 15.6543 60.4143C15.4426 61.1129 15.1603 61.8256 14.7369 62.4042C13.5162 64.0836 13.7773 65.3256 15.7813 66.0312C17.249 66.5534 18.8014 66.885 20.3397 67.1602C27.008 68.3457 33.6834 69.4818 39.766 70.5332C45.2983 70.0322 50.1178 69.5171 54.9514 69.1854C56.7579 69.0584 58.0633 68.3104 59.1147 66.9626C60.9635 64.5846 62.7347 62.1431 64.6187 59.7933C68.2316 55.2913 71.2094 50.4295 73.0159 44.9255C73.4745 43.5283 73.2417 41.8489 73.8979 40.5928C75.7043 37.0928 76.5793 33.4164 76.6076 29.5354C76.6287 26.3318 76.6287 23.1 76.2547 19.9316H76.2406ZM64.1601 55.2772C62.4101 57.3377 60.9988 59.6945 59.5028 61.9667C57.6117 64.8316 55.0361 66.1441 51.5644 66.4828C45.6017 67.0614 39.6602 67.4354 33.7257 66.4969C28.7792 65.7137 23.875 64.6622 18.9496 63.7449C17.5877 63.4909 17.369 62.7429 17.8912 61.5786C19.7964 57.3165 22.4355 53.7107 26.3659 51.001C28.5746 49.4839 30.3739 47.3811 32.4626 45.6664C33.0977 45.1442 34.0927 44.742 34.883 44.7914C45.8063 45.5535 56.7297 45.9275 67.653 44.7914C68.1187 44.742 68.6056 44.869 69.3042 44.9396C68.1116 48.8982 66.6721 52.3135 64.1601 55.2702V55.2772ZM72.7618 35.9779C72.3455 37.742 71.2165 39.3791 70.1862 40.9174C69.8193 41.4678 68.782 41.7995 68.034 41.8206C61.2458 42.0323 54.4504 42.2017 47.6622 42.3005C45.3194 42.3358 42.9838 42.3005 40.641 42.2299C34.9394 42.0676 34.3326 42.5333 33.8034 38.8852C33.5564 37.1916 33.4435 35.4769 33.3235 33.7622C33.2247 32.365 33.2318 30.9679 33.3376 29.5778L34.0645 20.2421C34.1774 19.48 35.5392 18.5345 36.4707 18.3298C39.3497 17.6806 42.2852 17.2432 45.2206 16.9186C49.264 16.474 53.3285 15.8883 57.3788 15.9448C61.4998 15.9942 65.6348 16.6151 69.7205 17.222C72.7195 17.6736 73.03 18.3298 73.4675 21.3218C74.1872 26.2612 73.905 31.1655 72.7618 35.9709V35.9779Z" fill="black"/>
<path d="M66.2445 38.5676C67.0317 37.392 67.8945 36.141 68.2126 34.7929V34.7875C69.0862 31.1154 69.3019 27.3677 68.7519 23.5931C68.4176 21.3068 68.1803 20.8053 65.8886 20.4602L65.7784 20.4438C62.6921 19.9854 59.5695 19.5215 56.4574 19.4842C53.3622 19.4411 50.2563 19.8886 47.1665 20.2283C44.9233 20.4764 42.6801 20.8107 40.48 21.3068C39.7682 21.4632 38.7275 22.1857 38.6413 22.7681L38.0858 29.9021C38.005 30.9644 37.9996 32.0321 38.0751 33.0998C38.1667 34.4101 38.253 35.7204 38.4417 37.0146C38.8462 39.8024 39.3099 39.4465 43.6669 39.5705C45.4571 39.6244 47.242 39.6514 49.0322 39.6244C54.2196 39.549 59.4124 39.4195 64.5998 39.2578C65.1714 39.2416 65.9641 38.9882 66.2445 38.5676Z" fill="black"/>
</svg>
