<svg width="100" height="100" viewBox="0 0 100 100" fill="none" xmlns="http://www.w3.org/2000/svg">
  <g transform="translate(6, 9) scale(0.899)">
    <path d="M62.1942 51.6431C55.6042 51.2531 49.0242 50.4831 42.4442 50.4631C35.5742 50.4431 27.9142 48.7531 23.5942 56.7131C23.5142 56.8631 23.2942 56.9431 23.2242 57.0931C22.3942 58.9231 21.2242 60.6931 20.8642 62.6131C20.4642 64.7331 22.8442 66.7631 26.0342 67.5731C33.2242 69.4131 40.5542 69.8931 47.9442 69.6431C50.3442 69.6431 52.7542 69.6931 55.1542 69.6131C55.9242 69.5931 56.9442 69.5031 57.3942 69.0231C60.6942 65.5231 64.2542 62.1831 65.8642 57.4431C66.9742 54.1631 65.4542 51.8231 62.2042 51.6331L62.1942 51.6431ZM40.0442 63.6631L38.8542 65.3131C34.4142 64.7731 30.6742 64.4131 26.9942 63.7731C26.6942 63.7231 26.4142 63.4631 26.1642 63.1331C25.5442 62.3331 25.7242 61.1731 26.5642 60.6431C26.8842 60.4431 27.1942 60.3031 27.5042 60.3131C31.1442 60.4531 34.7942 60.7731 38.4142 61.2031C38.8642 61.2531 39.2842 61.5031 39.7142 61.7831C40.3242 62.2031 40.4842 63.0531 40.0442 63.6631ZM42.1342 57.8031C41.9442 57.9831 41.7642 58.0931 41.5742 58.0931C39.8142 58.1131 38.0642 57.7431 35.6342 57.4431C34.8242 57.4031 32.1742 57.2231 30.7042 56.9831C30.6742 56.9831 30.6442 56.9731 30.6142 56.9631C29.6042 56.7231 30.0342 54.2731 30.9442 53.6131C31.1542 53.4631 31.3642 53.3631 31.5642 53.3731C34.8242 53.4431 39.2042 54.0031 42.4542 54.4031C42.5242 54.4031 42.5942 54.4331 42.6642 54.4731C43.4842 54.9231 42.8842 57.1131 42.1442 57.8031H42.1342ZM44.4742 65.1231C44.8242 62.5431 46.0242 61.3731 49.0242 61.8231C51.9042 62.2531 54.8942 62.0631 58.0442 62.1631C57.4342 66.9431 46.6942 66.1831 44.4742 65.1231ZM46.4242 57.4731C47.3042 55.3331 56.4242 54.7631 61.1742 56.6631C59.3342 59.6831 52.7242 59.9631 46.4242 57.4731Z" fill="#1a1a18"/>
    <path d="M88.2044 9.82318C87.8844 7.08318 87.9044 3.42318 84.2044 2.69318C78.4044 1.54318 72.5344 0.773182 66.6544 0.0631821C64.7444 -0.166818 62.7543 0.293182 60.7943 0.453182C50.9243 1.21318 41.0443 1.84318 31.2043 2.85318C29.5643 3.02318 27.4643 4.48318 26.6643 5.94318C23.7643 11.2132 23.3043 17.1832 23.3043 23.0432C23.3043 28.8332 24.1343 34.6232 24.3943 40.4232C24.4443 41.5032 23.7943 42.9032 23.0143 43.6932C19.7743 46.9332 16.4443 50.1032 12.9743 53.0932C8.39435 57.0432 4.18435 61.1932 2.34435 67.1932C2.04435 68.1832 1.64435 69.1932 1.04435 70.0132C-0.685652 72.3932 -0.315652 74.1532 2.52435 75.1532C4.60435 75.8932 6.80435 76.3632 8.98435 76.7532C18.4343 78.4332 27.8943 80.0432 36.5143 81.5332C44.3543 80.8232 51.1843 80.0932 58.0343 79.6232C60.5943 79.4432 62.4443 78.3832 63.9343 76.4732C66.5543 73.1032 69.0644 69.6432 71.7344 66.3132C76.8544 59.9332 81.0744 53.0432 83.6344 45.2432C84.2844 43.2632 83.9544 40.8832 84.8844 39.1032C87.4444 34.1432 88.6843 28.9332 88.7243 23.4332C88.7543 18.8932 88.7543 14.3132 88.2243 9.82318H88.2044ZM71.0844 59.9132C68.6044 62.8332 66.6044 66.1732 64.4844 69.3932C61.8044 73.4532 58.1543 75.3132 53.2343 75.7932C44.7843 76.6132 36.3643 77.1432 27.9543 75.8132C20.9443 74.7032 13.9943 73.2132 7.01435 71.9132C5.08435 71.5532 4.77435 70.4932 5.51435 68.8432C8.21435 62.8032 11.9543 57.6932 17.5243 53.8532C20.6543 51.7032 23.2043 48.7232 26.1643 46.2932C27.0643 45.5532 28.4743 44.9832 29.5943 45.0532C45.0743 46.1332 60.5544 46.6632 76.0344 45.0532C76.6944 44.9832 77.3844 45.1632 78.3744 45.2632C76.6844 50.8732 74.6444 55.7132 71.0844 59.9032V59.9132ZM83.2744 32.5632C82.6844 35.0632 81.0844 37.3832 79.6244 39.5632C79.1044 40.3432 77.6343 40.8132 76.5743 40.8432C66.9543 41.1432 57.3243 41.3832 47.7043 41.5232C44.3843 41.5732 41.0743 41.5232 37.7543 41.4232C29.6743 41.1932 28.8143 41.8532 28.0643 36.6832C27.7143 34.2832 27.5543 31.8532 27.3843 29.4232C27.2443 27.4432 27.2543 25.4632 27.4043 23.4932L28.4343 10.2632C28.5943 9.18318 30.5243 7.84318 31.8443 7.55318C35.9243 6.63318 40.0843 6.01318 44.2443 5.55318C49.9743 4.92318 55.7343 4.09318 61.4743 4.17318C67.3143 4.24318 73.1743 5.12318 78.9643 5.98318C83.2143 6.62318 83.6544 7.55318 84.2744 11.7932C85.2944 18.7932 84.8944 25.7432 83.2744 32.5532V32.5632Z" fill="#1a1a18"/>
    <path d="M74.0381 36.233C75.1538 34.5671 76.3764 32.7943 76.8273 30.8838V30.8762C78.0653 25.6722 78.3709 20.3612 77.5915 15.012C77.1177 11.7719 76.7815 11.0612 73.5337 10.5722L73.3777 10.549C69.0039 9.89926 64.5787 9.24189 60.1684 9.18902C55.782 9.12789 51.3804 9.76215 47.0017 10.2436C43.8228 10.5951 40.6438 11.0689 37.526 11.7719C36.5173 11.9935 35.0425 13.0175 34.9202 13.8428L34.1331 23.9528C34.0185 25.4582 34.0108 26.9713 34.1178 28.4843C34.2477 30.3413 34.37 32.1982 34.6375 34.0322C35.2106 37.983 35.8678 37.4786 42.0423 37.6544C44.5793 37.7308 47.1087 37.769 49.6458 37.7308C56.9971 37.6238 64.356 37.4404 71.7074 37.2112C72.5174 37.1882 73.6407 36.8291 74.0381 36.233Z" fill="#1a1a18"/>
  </g>
</svg>
