<svg width="91" height="84" viewBox="0 0 91 84" fill="none" xmlns="http://www.w3.org/2000/svg">
<path d="M87.6339 25.4C77.2539 9.69 62.1339 1.18 42.6739 0.0999999C41.7739 0.0299999 40.8839 0 40.0039 0C31.5339 0 24.0939 3.12 17.8539 9.31C10.3939 16.71 4.97394 25.73 1.75394 36.11C-3.05606 51.63 2.19394 66.79 15.4539 75.68C16.1139 76.12 16.7439 76.63 17.3539 77.13C18.5439 78.1 19.6639 79.01 20.9539 79.43C24.8939 80.7 28.9339 81.48 33.4339 82.3C42.4439 83.94 52.8839 85.3 62.7939 80.7C78.4839 73.42 87.6939 60.32 90.1639 41.76C90.8539 36.6 91.0839 30.62 87.6339 25.39V25.4Z" fill="white"/>
<path d="M62.3713 20.426C62.3038 19.2054 62.6006 17.7825 62.0678 16.8114C59.9975 13.0214 56.6526 11.4838 52.4782 12.1514C48.7219 12.7516 44.8915 13.3046 41.587 15.3008C37.8443 17.5599 34.324 20.1967 30.6284 22.5368C29.2662 23.3933 28.6053 24.4116 28.4098 25.9896C28.0456 28.8557 27.2363 31.6948 27.115 34.5609C26.9261 39.032 27.0205 43.5234 27.0475 48.008C27.0543 49.2893 27.1082 50.5638 27.1959 51.8384L28.3356 68.0302C28.5177 70.876 28.4907 71.0918 31.2624 71.9146C33.2046 72.4878 35.2479 73.088 37.1092 71.8674C40.5687 69.5947 43.9406 67.1804 47.3529 64.8404C52.1478 61.5494 56.9561 58.2787 61.7171 54.9405C62.2027 54.5966 62.6478 53.8278 62.6613 53.2411C62.8366 46.322 63.0187 39.4029 62.9985 32.4838C62.985 28.4713 62.5938 24.452 62.3713 20.4395V20.426ZM53.3347 14.6062C45.7479 15.9751 39.0177 19.2121 32.8404 23.6967C38.7884 18.6457 45.4242 15.1524 53.3347 14.6062ZM36.0976 42.0465C36.1179 42.1611 36.0369 42.269 35.9223 42.269C33.8789 42.3634 32.0311 42.4511 30.1024 42.5455C29.9406 42.5523 29.8057 42.4241 29.8057 42.2623V39.4299C29.8057 39.2748 29.9338 39.1467 30.0889 39.1467C31.6872 39.1332 33.2922 39.0388 34.877 39.1804C36.6708 39.3355 35.9088 40.7315 36.1044 42.0465H36.0976ZM30.7094 26.9068C30.8915 25.6727 32.0109 25.8615 32.8741 25.8075C33.7171 25.7536 34.7489 25.5243 34.9917 26.7314C35.2951 28.2218 35.4974 29.7391 35.6997 31.2565C35.8414 32.3422 35.9155 33.428 36.0234 34.5205C36.1381 35.6736 36.1179 36.6245 34.4791 36.5099C32.9618 36.402 31.4377 36.4896 29.4685 36.4896C29.8597 33.3943 30.2373 30.1505 30.7026 26.9202L30.7094 26.9068ZM36.509 47.6573C36.4281 48.507 36.3741 49.3432 36.3539 50.2132C36.246 54.4685 36.0504 58.717 35.9358 62.9723C35.8953 64.4492 35.9897 65.9329 36.0437 67.4097C36.0841 68.4483 35.6997 69.2575 34.5803 69.1361C33.4271 69.0147 31.7277 69.9858 31.3096 67.9762C30.8982 66.0003 30.5812 63.9906 30.4059 61.981C29.9945 57.3278 29.6371 52.6746 29.3808 48.0147C29.246 45.5128 29.3539 45.506 31.8626 45.4993C32.193 45.4993 32.5302 45.4993 32.8606 45.4993V45.4858C33.3057 45.4858 33.7508 45.4858 34.1891 45.4858C36.3539 45.4858 36.6978 45.533 36.5023 47.664L36.509 47.6573ZM37.0215 23.2179C41.1689 20.0956 53.8607 15.8133 57.2663 16.2651C50.6641 18.531 43.7788 20.8981 37.0215 23.2179ZM59.9166 51.6968C59.5052 53.9694 57.799 55.244 55.9715 56.377C53.5774 57.8673 51.1834 59.3577 48.8163 60.8885C45.5119 63.0263 42.2277 65.1978 39.0312 67.2951C39.0312 60.2344 39.1323 53.2681 39.0042 46.3085C38.8761 39.4434 38.5051 32.585 38.2354 25.5782C45.0398 22.9684 51.8578 19.7854 59.6063 19.0368C59.7547 21.033 59.9705 22.9077 60.0177 24.7892C60.0852 27.5204 60.1526 30.2584 60.2133 32.9896C60.3414 39.2209 60.247 45.4588 59.9166 51.69V51.6968Z" fill="black"/>
<path d="M53.8607 25.5176C51.433 26.0571 48.985 26.61 46.6314 27.3991C42.3491 28.8422 42.3761 28.9164 42.2615 33.2459C42.4098 34.8846 42.5177 36.5301 42.7268 38.1621C42.8617 39.2141 43.5091 39.7334 44.5881 39.3692C48.1218 38.1756 51.6488 36.9685 55.1758 35.7478C56.2952 35.3567 57.3675 34.716 57.3203 33.4145C57.2461 31.3644 57.0708 29.2873 56.6392 27.2912C56.3694 26.0503 55.2702 25.2073 53.8675 25.5176H53.8607ZM54.3598 32.1669C54.353 32.4569 54.1844 32.902 53.9686 33.0031C51.1228 34.2844 48.2567 35.5185 45.1411 36.874C44.9657 34.8981 44.6757 33.3673 44.7702 31.8634C44.8174 31.1621 45.485 30.0763 46.0852 29.901C48.7355 29.139 51.4667 28.6399 54.38 28.006C54.38 29.5301 54.4002 30.8519 54.3598 32.1669Z" fill="black"/>
</svg>
